<?xml version="1.0" encoding="utf-8"?>
<!-- Generator: Adobe Illustrator 22.0.1, SVG Export Plug-In . SVG Version: 6.00 Build 0)  -->
<svg version="1.1" id="Layer_1" xmlns="http://www.w3.org/2000/svg" xmlns:xlink="http://www.w3.org/1999/xlink" x="0px" y="0px"
	 viewBox="0 0 237 20.7" style="enable-background:new 0 0 237 20.7;" xml:space="preserve">
<style type="text/css">
	.st0{fill:#FFFFFF;}
	.st1{fill:#FEFFFF;}
	.st2{fill:#FEFEFF;}
	.st3{fill:#FDFEFE;}
	.st4{fill:#FCFDFE;}
	.st5{fill:#FBFDFE;}
	.st6{fill:#FBFCFE;}
	.st7{fill:#FAFCFD;}
	.st8{fill:#F9FBFD;}
	.st9{fill:#F8FBFD;}
	.st10{fill:#F8FAFD;}
	.st11{fill:#F7FAFC;}
	.st12{fill:#F6F9FC;}
	.st13{fill:#F5F9FC;}
	.st14{fill:#F5F8FC;}
	.st15{fill:#F4F8FB;}
	.st16{fill:#F3F7FB;}
	.st17{fill:#F2F7FB;}
	.st18{fill:#F2F6FB;}
	.st19{fill:#F1F6FA;}
	.st20{fill:#F0F5FA;}
	.st21{fill:#EFF5FA;}
	.st22{fill:#EFF4FA;}
	.st23{fill:#EEF4F9;}
	.st24{fill:#EDF3F9;}
	.st25{fill:#ECF2F9;}
	.st26{fill:#EBF2F8;}
	.st27{fill:#EBF1F8;}
	.st28{fill:#EAF1F8;}
	.st29{fill:#E9F0F8;}
	.st30{fill:#E8F0F7;}
	.st31{fill:#E8EFF7;}
	.st32{fill:#E7EFF7;}
	.st33{fill:#E6EEF7;}
	.st34{fill:#E5EEF6;}
	.st35{fill:#E5EDF6;}
	.st36{fill:#E4EDF6;}
	.st37{fill:#E3ECF6;}
	.st38{fill:#E2ECF5;}
	.st39{fill:#E2EBF5;}
	.st40{fill:#E1EBF5;}
	.st41{fill:#E0EAF5;}
	.st42{fill:#DFEAF4;}
	.st43{fill:#DFE9F4;}
	.st44{fill:#DEE9F4;}
	.st45{fill:#DDE8F4;}
	.st46{fill:#DCE8F3;}
	.st47{fill:#DCE7F3;}
	.st48{fill:#DBE7F3;}
	.st49{fill:#D9E5F1;}
	.st50{fill:#D7E3EF;}
	.st51{fill:#D5E1ED;}
	.st52{fill:#D3DFEB;}
	.st53{fill:#D1DDE9;}
	.st54{fill:#CFDBE7;}
	.st55{fill:#CDD9E5;}
	.st56{fill:#CBD7E3;}
	.st57{fill:#C9D6E2;}
	.st58{fill:#C7D4E0;}
	.st59{fill:#C5D2DE;}
	.st60{fill:#C4D0DC;}
	.st61{fill:#C2CEDA;}
	.st62{fill:#C0CCD8;}
	.st63{fill:#BECAD6;}
	.st64{fill:#BCC8D4;}
	.st65{fill:#BAC6D2;}
	.st66{fill:#B8C4D0;}
	.st67{fill:#B6C2CE;}
	.st68{fill:#B4C0CC;}
	.st69{fill:#B2BECA;}
	.st70{fill:#B0BCC8;}
	.st71{fill:#AEBAC6;}
	.st72{fill:#ACB8C4;}
	.st73{fill:#AAB6C2;}
	.st74{fill:#A8B4C0;}
	.st75{fill:#A6B3BF;}
	.st76{fill:#A4B1BD;}
	.st77{fill:#A2AFBB;}
	.st78{fill:#A0ADB9;}
	.st79{fill:#9EABB7;}
	.st80{fill:#9CA9B5;}
	.st81{fill:#9AA7B3;}
	.st82{fill:#98A5B1;}
	.st83{fill:#96A3AF;}
	.st84{fill:#95A1AD;}
	.st85{fill:#939FAB;}
	.st86{fill:#919DA9;}
	.st87{fill:#8F9BA7;}
	.st88{fill:#8D99A5;}
	.st89{fill:#8B97A3;}
	.st90{fill:#8995A1;}
	.st91{fill:#87939F;}
	.st92{fill:#85919D;}
	.st93{fill:#83909C;}
	.st94{fill:#818E9A;}
	.st95{fill:#7F8C98;}
	.st96{fill:#7D8A96;}
	.st97{fill:#7B8894;}
	.st98{fill:#798692;}
	.st99{fill:#778490;}
	.st100{fill:#75828E;}
	.st101{fill:#73808C;}
	.st102{fill:#717E8A;}
	.st103{fill:#6F7C88;}
	.st104{fill:#6D7A86;}
	.st105{fill:#6B7884;}
	.st106{fill:#697682;}
	.st107{fill:#677480;}
	.st108{fill:#66727E;}
	.st109{fill:#64707C;}
	.st110{fill:#626E7A;}
	.st111{fill:#606D79;}
	.st112{fill:#5E6B77;}
	.st113{fill:#5C6975;}
	.st114{fill:#5A6773;}
	.st115{fill:#586571;}
	.st116{fill:#56636F;}
	.st117{fill:#54616D;}
	.st118{fill:#525F6B;}
	.st119{fill:#505D69;}
</style>
<g>
	<path class="st0" d="M1.2,1.8c2,9.9,53.9,17.8,117.6,17.8s115.6-7.9,117.6-17.8H1.2z"/>
	<path class="st1" d="M1.2,1.8c2,9.8,53.9,17.7,117.6,17.7s115.6-7.9,117.6-17.7H1.2z"/>
	<path class="st2" d="M1.2,1.8c2,9.8,53.9,17.6,117.6,17.6s115.6-7.8,117.6-17.6H1.2z"/>
	<path class="st3" d="M1.2,1.8c2,9.7,53.9,17.5,117.6,17.5s115.6-7.8,117.6-17.5H1.2z"/>
	<path class="st3" d="M1.2,1.8c2.1,9.7,53.9,17.4,117.6,17.4s115.5-7.7,117.6-17.4H1.2z"/>
	<path class="st4" d="M1.2,1.8c2.1,9.6,53.9,17.3,117.6,17.3s115.5-7.7,117.6-17.3H1.2z"/>
	<path class="st4" d="M1.2,1.8c2.1,9.5,53.9,17.2,117.6,17.2s115.5-7.6,117.6-17.2H1.2z"/>
	<path class="st5" d="M1.3,1.8c2.1,9.5,53.9,17,117.6,17s115.5-7.6,117.6-17H1.3z"/>
	<path class="st6" d="M1.3,1.8c2.1,9.4,54,16.9,117.6,16.9s115.5-7.5,117.6-16.9H1.3z"/>
	<path class="st7" d="M1.3,1.8c2.2,9.3,54,16.8,117.6,16.8s115.4-7.5,117.6-16.8H1.3z"/>
	<path class="st7" d="M1.3,1.8c2.2,9.3,54,16.7,117.6,16.7s115.4-7.4,117.6-16.7H1.3z"/>
	<path class="st8" d="M1.3,1.8c2.2,9.2,54,16.6,117.6,16.6S234.2,11,236.4,1.8H1.3z"/>
	<path class="st8" d="M1.3,1.8c2.2,9.2,54,16.5,117.6,16.5s115.4-7.3,117.6-16.5H1.3z"/>
	<path class="st9" d="M1.3,1.8c2.2,9.1,54,16.4,117.6,16.4s115.3-7.3,117.6-16.4H1.3z"/>
	<path class="st10" d="M1.3,1.8c2.3,9,54,16.3,117.6,16.3s115.3-7.2,117.6-16.3H1.3z"/>
	<path class="st11" d="M1.3,1.8c2.3,9,54,16.1,117.6,16.1s115.3-7.2,117.6-16.1H1.3z"/>
	<path class="st11" d="M1.3,1.8c2.3,8.9,54.1,16,117.6,16s115.3-7.1,117.6-16H1.3z"/>
	<path class="st12" d="M1.3,1.8c2.3,8.8,54.1,15.9,117.6,15.9s115.3-7.1,117.6-15.9H1.3z"/>
	<path class="st12" d="M1.3,1.8c2.3,8.8,54.1,15.8,117.6,15.8s115.2-7,117.6-15.8H1.3z"/>
	<path class="st13" d="M1.3,1.8c2.4,8.7,54.1,15.7,117.6,15.7s115.2-7,117.6-15.7H1.3z"/>
	<path class="st14" d="M1.3,1.8c2.4,8.7,54.1,15.6,117.6,15.6S234,10.4,236.4,1.8H1.3z"/>
	<path class="st15" d="M1.3,1.8c2.4,8.6,54.1,15.5,117.6,15.5S234,10.4,236.4,1.8H1.3z"/>
	<path class="st15" d="M1.3,1.8c2.4,8.5,54.1,15.4,117.6,15.4S234,10.3,236.4,1.8H1.3z"/>
	<path class="st16" d="M1.3,1.8C3.7,10.3,55.4,17,118.8,17S234,10.3,236.4,1.8H1.3z"/>
	<path class="st16" d="M1.3,1.8c2.5,8.4,54.1,15.1,117.6,15.1s115.1-6.7,117.6-15.1H1.3z"/>
	<path class="st17" d="M1.3,1.8c2.5,8.3,54.2,15,117.6,15s115.1-6.7,117.6-15H1.3z"/>
	<path class="st18" d="M1.3,1.8c2.5,8.3,54.2,14.9,117.6,14.9s115.1-6.6,117.6-14.9H1.3z"/>
	<path class="st19" d="M1.3,1.8C3.8,10,55.5,16.6,118.8,16.6s115-6.6,117.6-14.8H1.3z"/>
	<path class="st19" d="M1.3,1.8c2.5,8.2,54.2,14.7,117.6,14.7s115-6.5,117.6-14.7H1.3z"/>
	<path class="st20" d="M1.3,1.8c2.6,8.1,54.2,14.6,117.6,14.6s115-6.5,117.6-14.6H1.3z"/>
	<path class="st20" d="M1.3,1.8c2.6,8,54.2,14.5,117.6,14.5s115-6.4,117.6-14.5H1.3z"/>
	<path class="st21" d="M1.3,1.8c2.6,8,54.2,14.3,117.5,14.3S233.8,9.8,236.4,1.8H1.3z"/>
	<path class="st22" d="M1.3,1.8C3.9,9.7,55.5,16,118.8,16S233.8,9.7,236.4,1.8H1.3z"/>
	<path class="st23" d="M1.3,1.8c2.6,7.8,54.3,14.1,117.5,14.1S233.7,9.6,236.4,1.8H1.3z"/>
	<path class="st23" d="M1.3,1.8c2.7,7.8,54.3,14,117.5,14s114.9-6.2,117.5-14H1.3z"/>
	<path class="st24" d="M1.3,1.8C4,9.5,55.6,15.7,118.8,15.7S233.7,9.5,236.4,1.8H1.3z"/>
	<path class="st24" d="M1.3,1.8C4,9.4,55.6,15.6,118.8,15.6S233.7,9.4,236.4,1.8H1.3z"/>
	<path class="st25" d="M1.3,1.8C4,9.4,55.6,15.4,118.8,15.4S233.7,9.4,236.4,1.8H1.3z"/>
	<path class="st25" d="M1.3,1.8C4,9.3,55.6,15.3,118.8,15.3s114.8-6,117.5-13.6H1.3z"/>
	<path class="st26" d="M1.3,1.8c2.8,7.5,54.3,13.4,117.5,13.4s114.8-6,117.5-13.4H1.3z"/>
	<path class="st27" d="M1.3,1.8c2.8,7.4,54.3,13.3,117.5,13.3S233.6,9.2,236.4,1.8H1.3z"/>
	<path class="st28" d="M1.3,1.8C4.1,9.1,55.7,15,118.8,15S233.6,9.1,236.4,1.8H1.3z"/>
	<path class="st28" d="M1.3,1.8c2.8,7.3,54.4,13.1,117.5,13.1S233.5,9.1,236.4,1.8H1.3z"/>
	<path class="st29" d="M1.3,1.8c2.8,7.2,54.4,13,117.5,13S233.5,9,236.4,1.8H1.3z"/>
	<path class="st29" d="M1.3,1.8c2.9,7.2,54.4,12.9,117.5,12.9S233.5,8.9,236.4,1.8H1.3z"/>
	<path class="st30" d="M1.3,1.8c2.9,7.1,54.4,12.8,117.5,12.8S233.5,8.9,236.4,1.8H1.3z"/>
	<path class="st31" d="M1.3,1.8c2.9,7,54.4,12.7,117.5,12.7S233.5,8.8,236.4,1.8H1.3z"/>
	<path class="st32" d="M1.3,1.8c2.9,7,54.4,12.5,117.5,12.5S233.4,8.8,236.4,1.8H1.3z"/>
	<path class="st32" d="M1.3,1.8c2.9,6.9,54.4,12.4,117.5,12.4S233.4,8.7,236.4,1.8H1.3z"/>
	<path class="st33" d="M1.3,1.8c3,6.9,54.4,12.3,117.5,12.3S233.4,8.6,236.4,1.8H1.3z"/>
	<path class="st33" d="M1.3,1.8C4.3,8.6,55.8,14,118.8,14S233.4,8.6,236.4,1.8H1.3z"/>
	<path class="st34" d="M1.3,1.8c3,6.7,54.5,12.1,117.5,12.1S233.3,8.5,236.4,1.8H1.3z"/>
	<path class="st35" d="M1.3,1.8c3,6.7,54.5,12,117.5,12s114.5-5.3,117.5-12H1.3z"/>
	<path class="st36" d="M1.3,1.8c3,6.6,54.5,11.9,117.5,11.9S233.3,8.4,236.4,1.8H1.3z"/>
	<path class="st36" d="M1.3,1.8c3.1,6.5,54.5,11.7,117.5,11.7S233.3,8.3,236.4,1.8H1.3z"/>
	<path class="st37" d="M1.3,1.8c3.1,6.5,54.5,11.6,117.5,11.6S233.3,8.3,236.3,1.8H1.3z"/>
	<path class="st37" d="M1.3,1.8c3.1,6.4,54.5,11.5,117.5,11.5S233.2,8.2,236.3,1.8H1.3z"/>
	<path class="st38" d="M1.3,1.8c3.1,6.4,54.5,11.4,117.5,11.4S233.2,8.1,236.3,1.8H1.3z"/>
	<path class="st39" d="M1.3,1.8c3.2,6.3,54.6,11.3,117.5,11.3s114.4-5,117.5-11.3H1.3z"/>
	<path class="st40" d="M1.3,1.8C4.5,8,55.9,13,118.8,13S233.2,8,236.3,1.8H1.3z"/>
	<path class="st40" d="M1.3,1.8c3.2,6.2,54.6,11.1,117.5,11.1S233.1,7.9,236.3,1.8H1.3z"/>
	<path class="st41" d="M1.3,1.8c3.2,6.1,54.6,11,117.5,11s114.3-4.9,117.5-11H1.3z"/>
	<path class="st41" d="M1.3,1.8c3.2,6,54.6,10.8,117.5,10.8S233.1,7.8,236.3,1.8H1.3z"/>
	<path class="st42" d="M1.3,1.8c3.3,6,54.6,10.7,117.5,10.7S233.1,7.8,236.3,1.8H1.3z"/>
	<path class="st43" d="M1.3,1.8C4.6,7.7,56,12.4,118.8,12.4S233.1,7.7,236.3,1.8H1.3z"/>
	<path class="st44" d="M1.4,1.8C4.6,7.6,56,12.3,118.8,12.3S233,7.6,236.3,1.8H1.4z"/>
	<path class="st44" d="M1.4,1.8C4.7,7.6,56,12.2,118.8,12.2S233,7.6,236.3,1.8H1.4z"/>
	<path class="st45" d="M1.4,1.8C4.7,7.5,56,12.1,118.8,12.1S233,7.5,236.3,1.8H1.4z"/>
	<path class="st45" d="M1.4,1.8C4.7,7.4,56,12,118.8,12S233,7.4,236.3,1.8H1.4z"/>
	<path class="st46" d="M1.4,1.8C4.7,7.4,56,11.8,118.8,11.8S232.9,7.4,236.3,1.8H1.4z"/>
	<path class="st47" d="M1.4,1.8c3.4,5.5,54.7,9.9,117.5,9.9s114.1-4.4,117.5-9.9H1.4z"/>
	<path class="st48" d="M1.4,1.8c3.4,5.5,54.7,9.8,117.5,9.8s114.1-4.4,117.5-9.8H1.4z"/>
	<path class="st49" d="M1.4,1.8c3.5,5.4,54.7,9.7,117.5,9.7s114-4.3,117.5-9.7H1.4z"/>
	<path class="st50" d="M1.4,1.8c3.6,5.3,54.8,9.6,117.5,9.6s113.9-4.2,117.5-9.6H1.4z"/>
	<path class="st51" d="M1.4,1.8c3.6,5.3,54.8,9.5,117.4,9.5s113.8-4.2,117.4-9.5H1.4z"/>
	<path class="st52" d="M1.4,1.8c3.7,5.2,54.8,9.3,117.4,9.3S232.6,7,236.3,1.8H1.4z"/>
	<path class="st53" d="M1.4,1.8C5.2,6.9,56.3,11,118.8,11s113.6-4.1,117.4-9.2H1.4z"/>
	<path class="st54" d="M1.5,1.8c3.8,5.1,54.9,9.1,117.4,9.1s113.6-4,117.4-9.1H1.5z"/>
	<path class="st55" d="M1.5,1.8c3.9,5,55,8.9,117.4,8.9s113.5-4,117.4-8.9H1.5z"/>
	<path class="st56" d="M1.5,1.8c4,4.9,55,8.8,117.4,8.8s113.4-3.9,117.4-8.8H1.5z"/>
	<path class="st57" d="M1.5,1.8c4,4.8,55,8.7,117.3,8.7s113.3-3.8,117.3-8.7H1.5z"/>
	<path class="st58" d="M1.5,1.8c4.1,4.8,55.1,8.6,117.3,8.6s113.2-3.8,117.3-8.6H1.5z"/>
	<path class="st59" d="M1.5,1.8c4.2,4.7,55.1,8.4,117.3,8.4S232,6.5,236.2,1.8H1.5z"/>
	<path class="st60" d="M1.5,1.8c4.2,4.6,55.1,8.3,117.3,8.3s113.1-3.7,117.3-8.3H1.5z"/>
	<path class="st61" d="M1.6,1.8C5.9,6.3,56.7,10,118.8,10s113-3.6,117.3-8.2H1.6z"/>
	<path class="st62" d="M1.6,1.8C6,6.3,56.8,9.8,118.8,9.8s112.9-3.6,117.3-8.1H1.6z"/>
	<path class="st63" d="M1.6,1.8C6,6.2,56.8,9.7,118.8,9.7s112.8-3.5,117.3-7.9H1.6z"/>
	<path class="st64" d="M1.6,1.8c4.5,4.3,55.3,7.8,117.2,7.8s112.7-3.5,117.2-7.8H1.6z"/>
	<path class="st65" d="M1.6,1.8c4.6,4.3,55.3,7.7,117.2,7.7s112.6-3.4,117.2-7.7H1.6z"/>
	<path class="st66" d="M1.6,1.8C6.3,6,57,9.3,118.8,9.3S231.4,6,236.1,1.8H1.6z"/>
	<path class="st67" d="M1.6,1.8C6.4,5.9,57,9.2,118.8,9.2S231.3,5.9,236,1.8H1.6z"/>
	<path class="st68" d="M1.7,1.8c4.8,4.1,55.4,7.3,117.2,7.3S231.2,5.8,236,1.8H1.7z"/>
	<path class="st69" d="M1.7,1.8c4.9,4,55.5,7.2,117.2,7.2S231.1,5.8,236,1.8H1.7z"/>
	<path class="st70" d="M1.7,1.8c4.9,3.9,55.5,7,117.2,7s112.2-3.1,117.2-7H1.7z"/>
	<path class="st71" d="M1.7,1.8c5,3.9,55.5,6.9,117.1,6.9S231,5.6,236,1.8H1.7z"/>
	<path class="st72" d="M1.7,1.8c5.1,3.8,55.6,6.8,117.1,6.8s112.1-3,117.1-6.8H1.7z"/>
	<path class="st73" d="M1.7,1.8c5.1,3.7,55.6,6.7,117.1,6.7s112-2.9,117.1-6.7H1.7z"/>
	<path class="st74" d="M1.7,1.8C7,5.4,57.4,8.3,118.8,8.3s111.9-2.9,117.1-6.5H1.7z"/>
	<path class="st75" d="M1.8,1.8C7,5.4,57.4,8.2,118.8,8.2s111.8-2.8,117.1-6.4H1.8z"/>
	<path class="st76" d="M1.8,1.8c5.3,3.5,55.7,6.3,117.1,6.3s111.7-2.8,117.1-6.3H1.8z"/>
	<path class="st77" d="M1.8,1.8c5.4,3.4,55.7,6.1,117,6.1s111.6-2.7,117-6.1H1.8z"/>
	<path class="st78" d="M1.8,1.8c5.5,3.4,55.8,6,117,6s111.5-2.7,117-6H1.8z"/>
	<path class="st79" d="M1.8,1.8c5.6,3.3,55.8,5.9,117,5.9s111.5-2.6,117-5.9H1.8z"/>
	<path class="st80" d="M1.8,1.8c5.6,3.2,55.9,5.8,117,5.8s111.4-2.5,117-5.8H1.8z"/>
	<path class="st81" d="M1.9,1.8c5.7,3.1,55.9,5.6,117,5.6s111.3-2.5,117-5.6H1.9z"/>
	<path class="st82" d="M1.9,1.8c5.8,3.1,55.9,5.5,117,5.5s111.2-2.4,117-5.5H1.9z"/>
	<path class="st83" d="M1.9,1.8c5.8,3,56,5.4,117,5.4s111.1-2.4,117-5.4H1.9z"/>
	<path class="st84" d="M1.9,1.8C7.8,4.7,57.9,7,118.8,7s111-2.3,116.9-5.3H1.9z"/>
	<path class="st85" d="M1.9,1.8c6,2.9,56,5.1,116.9,5.1s111-2.3,116.9-5.1H1.9z"/>
	<path class="st86" d="M1.9,1.8c6,2.8,56.1,5,116.9,5s110.9-2.2,116.9-5H1.9z"/>
	<path class="st87" d="M1.9,1.8C8,4.5,58.1,6.7,118.8,6.7s110.8-2.2,116.9-4.9H1.9z"/>
	<path class="st88" d="M2,1.8c6.2,2.7,56.1,4.8,116.9,4.8s110.7-2.1,116.9-4.8H2z"/>
	<path class="st89" d="M2,1.8c6.2,2.6,56.2,4.6,116.9,4.6s110.6-2,116.9-4.6H2z"/>
	<path class="st90" d="M2,1.8c6.3,2.5,56.2,4.5,116.9,4.5s110.5-2,116.9-4.5H2z"/>
	<path class="st91" d="M2,1.8c6.4,2.4,56.3,4.4,116.8,4.4s110.5-1.9,116.8-4.4H2z"/>
	<path class="st92" d="M2,1.8C8.5,4.2,58.3,6,118.8,6s110.4-1.9,116.8-4.2H2z"/>
	<path class="st93" d="M2,1.8c6.5,2.3,56.3,4.1,116.8,4.1s110.3-1.8,116.8-4.1H2z"/>
	<path class="st94" d="M2,1.8c6.6,2.2,56.4,4,116.8,4S229,4,235.6,1.8H2z"/>
	<path class="st95" d="M2.1,1.8c6.7,2.2,56.4,3.9,116.8,3.9S229,3.9,235.6,1.8H2.1z"/>
	<path class="st96" d="M2.1,1.8c6.7,2.1,56.4,3.7,116.8,3.7s110-1.6,116.8-3.7H2.1z"/>
	<path class="st97" d="M2.1,1.8c6.8,2,56.5,3.6,116.7,3.6s110-1.6,116.7-3.6H2.1z"/>
	<path class="st98" d="M2.1,1.8C9,3.7,58.6,5.3,118.8,5.3s109.9-1.5,116.7-3.5H2.1z"/>
	<path class="st99" d="M2.1,1.8c6.9,1.9,56.5,3.4,116.7,3.4s109.8-1.5,116.7-3.4H2.1z"/>
	<path class="st100" d="M2.1,1.8C9.1,3.6,58.7,5,118.8,5s109.7-1.4,116.7-3.2H2.1z"/>
	<path class="st101" d="M2.2,1.8c7.1,1.7,56.6,3.1,116.7,3.1s109.6-1.4,116.7-3.1H2.2z"/>
	<path class="st102" d="M2.2,1.8c7.1,1.7,56.6,3,116.7,3s109.5-1.3,116.7-3H2.2z"/>
	<path class="st103" d="M2.2,1.8c7.2,1.6,56.7,2.8,116.7,2.8s109.5-1.3,116.7-2.8H2.2z"/>
	<path class="st104" d="M2.2,1.8c7.3,1.5,56.7,2.7,116.6,2.7s109.4-1.2,116.6-2.7H2.2z"/>
	<path class="st105" d="M2.2,1.8C9.6,3.2,59,4.4,118.8,4.4s109.3-1.1,116.6-2.6H2.2z"/>
	<path class="st106" d="M2.2,1.8C9.6,3.2,59,4.2,118.8,4.2S228,3.2,235.5,1.8H2.2z"/>
	<path class="st107" d="M2.2,1.8c7.5,1.3,56.8,2.3,116.6,2.3s109.1-1,116.6-2.3H2.2z"/>
	<path class="st108" d="M2.3,1.8C9.8,3,59.1,4,118.8,4s109-1,116.6-2.2H2.3z"/>
	<path class="st109" d="M2.3,1.8c7.6,1.2,56.9,2.1,116.6,2.1s109-0.9,116.6-2.1H2.3z"/>
	<path class="st110" d="M2.3,1.8c7.7,1.1,56.9,2,116.6,2s108.9-0.9,116.6-2H2.3z"/>
	<path class="st111" d="M2.3,1.8c7.8,1,57,1.8,116.5,1.8s108.8-0.8,116.5-1.8H2.3z"/>
	<path class="st112" d="M2.3,1.8c7.8,1,57,1.7,116.5,1.7s108.7-0.7,116.5-1.7H2.3z"/>
	<path class="st113" d="M2.3,1.8c7.9,0.9,57,1.6,116.5,1.6s108.6-0.7,116.5-1.6H2.3z"/>
	<path class="st114" d="M2.3,1.8c8,0.8,57.1,1.4,116.5,1.4s108.5-0.6,116.5-1.4H2.3z"/>
	<path class="st115" d="M2.4,1.8c8,0.7,57.1,1.3,116.5,1.3s108.4-0.6,116.5-1.3H2.4z"/>
	<path class="st116" d="M2.4,1.8C10.5,2.5,59.5,3,118.8,3s108.4-0.5,116.5-1.2H2.4z"/>
	<path class="st117" d="M2.4,1.8c8.2,0.6,57.2,1.1,116.4,1.1s108.3-0.5,116.4-1.1H2.4z"/>
	<path class="st118" d="M2.4,1.8c8.2,0.5,57.2,0.9,116.4,0.9S227,2.3,235.3,1.8H2.4z"/>
	<path class="st119" d="M2.4,1.8c8.3,0.5,57.3,0.8,116.4,0.8S227,2.2,235.3,1.8H2.4z"/>
</g>
</svg>
